<?xml version="1.0" encoding="UTF-8"?>
<svg width="960" height="700" version="1.1" viewBox="0 0 254 185" xmlns="http://www.w3.org/2000/svg"><path d="m50.8 185h203v-13.3z" fill="#f8f8f8" stroke-width="0"/><path d="m209 179c-0.036-0.0718-0.129-0.129-0.208-0.129h-0.162c-0.0791 0-0.173 0.0594-0.207 0.129l-1.28 2.68c-0.036 0.0701 4e-3 0.122 0.0828 0.122h0.296c0.117 0 0.171-0.0538 0.201-0.118 0.0323-0.0647 0.102-0.207 0.115-0.235 0.0179-0.0394 0.0737-0.0628 0.155-0.0628h1.38c0.0791 0 0.131 0.0144 0.155 0.0628 0.0161 0.0307 0.0861 0.158 0.12 0.226 0.0341 0.0701 0.0935 0.126 0.207 0.126h0.431c0.0791 0 0.115-0.0611 0.0861-0.117-0.0287-0.0538-1.37-2.68-1.37-2.68zm-0.808 1.96c-0.0791 0-0.117-0.0594-0.0828-0.131l0.504-1.08c0.0341-0.0718 0.0881-0.0718 0.12 0l0.49 1.08c0.0323 0.0718-5e-3 0.131-0.0844 0.131zm10.7-1.94v2.66c0 0.0737 0.0647 0.122 0.144 0.122h0.349c0.0791 0 0.144-0.0504 0.144-0.129v-2.66c0-0.0791-0.052-0.144-0.131-0.144h-0.363c-0.0791 0-0.144 0.0485-0.144 0.149zm-5.85 1.66c-0.045-0.0647-0.0197-0.137 0.0557-0.16 0 0 0.301-0.0898 0.448-0.221 0.146-0.129 0.217-0.318 0.217-0.563 0-0.16-0.0287-0.296-0.0845-0.405-0.0557-0.11-0.135-0.198-0.239-0.268-0.104-0.0684-0.228-0.118-0.374-0.151-0.146-0.0307-0.341-0.0414-0.341-0.0414-0.0791-4e-3 -0.208-7e-3 -0.287-7e-3h-1.45c-0.0791 0-0.144 0.0647-0.144 0.144v2.66c0 0.0791 0.0647 0.129 0.144 0.129h0.343c0.0791 0 0.144-0.0504 0.144-0.129v-1.06s2e-3 0 2e-3 -2e-3l0.653-2e-3c0.0791 0 0.182 0.0538 0.228 0.118l0.678 0.951c0.0628 0.0844 0.122 0.117 0.201 0.117h0.45c0.0791 0 0.0918-0.0755 0.0647-0.113-0.0287-0.0341-0.704-0.996-0.704-0.996zm-0.275-0.538c-0.0898 0.0197-0.189 0.0252-0.189 0.0252-0.0791 4e-3 -0.208 5e-3 -0.287 5e-3h-0.673c-0.0791 0-0.144-0.0647-0.144-0.144v-0.538c0-0.0791 0.0647-0.144 0.144-0.144h0.673c0.0791 0 0.208 4e-3 0.287 5e-3 0 0 0.1 4e-3 0.189 0.0252 0.0898 0.0197 0.16 0.0484 0.212 0.0861 0.0521 0.0377 0.0898 0.0808 0.111 0.131 0.0216 0.0504 0.0341 0.104 0.0341 0.165 0 0.0594-0.0107 0.115-0.0341 0.165-0.0216 0.0504-0.0593 0.0934-0.111 0.131-0.052 0.036-0.122 0.0647-0.212 0.0844zm10.4-1.27c-0.0791 0-0.144 0.052-0.144 0.129v1.7c0 0.0791-0.0448 0.0971-0.1 0.0414l-1.7-1.76c-0.0557-0.0574-0.137-0.104-0.244-0.104h-0.321c-0.1 0-0.144 0.0538-0.144 0.108v2.71c0 0.0538 0.0521 0.106 0.131 0.106h0.321c0.0791 0 0.135-0.043 0.135-0.117l2e-3 -1.78c0-0.0791 0.0447-0.0971 0.1-0.0394l1.77 1.83c0.0557 0.0557 0.124 0.102 0.246 0.102h0.241c0.0791 0 0.144-0.0647 0.144-0.144v-2.64c0-0.0791-0.0647-0.144-0.144-0.144zm-6.92 1.65c-0.0377 0.07-0.102 0.0684-0.14 0l-0.83-1.52c-0.036-0.0701-0.108-0.129-0.208-0.129h-0.45c-0.0791 0-0.144 0.0647-0.144 0.144v2.64c0 0.0791 0.0521 0.133 0.144 0.133h0.28c0.0791 0 0.137-0.0504 0.137-0.126 0-0.036 2e-3 -1.92 4e-3 -1.92 4e-3 0 1.04 1.92 1.04 1.92 0.0377 0.07 0.129 0.07 0.167 0l1.04-1.92c4e-3 0 2e-3 1.87 2e-3 1.92 0 0.0771 0.0611 0.126 0.14 0.126h0.321c0.0791 0 0.144-0.0394 0.144-0.144v-2.64c0-0.0791-0.0647-0.144-0.144-0.144h-0.431c-0.11 0-0.176 0.0557-0.216 0.126zm-12.8-0.194c0 1.43 1.46 1.5 1.75 1.5 0.971 0 1.38-0.262 1.4-0.273 0.061-0.0341 0.135-0.104 0.135-0.234v-0.985c0-0.0918-0.0737-0.165-0.165-0.165h-1.22c-0.0918 0-0.151 0.0737-0.151 0.165v0.102c0 0.0918 0.0593 0.165 0.151 0.165h0.704c0.0684 0 0.124 0.0557 0.124 0.124v0.459c-0.138 0.0574-0.771 0.243-1.28 0.12-0.737-0.176-0.797-0.788-0.797-0.968 0-0.153 0.0467-0.92 0.954-0.999 0.735-0.0628 1.22 0.234 1.22 0.237 0.0861 0.045 0.176 0.0126 0.225-0.0791l0.0918-0.185c0.0377-0.0754 0.0251-0.155-0.0684-0.217-5e-3 -4e-3 -0.521-0.281-1.32-0.281-1.71-2e-3 -1.76 1.36-1.76 1.51zm20.8 0.856c0.183 0 0.335 0.149 0.335 0.335 0 0.183-0.149 0.335-0.335 0.335-0.183 0-0.335-0.149-0.335-0.335 0-0.183 0.151-0.335 0.335-0.335zm2e-3 0.619c0.153 0 0.269-0.124 0.269-0.284s-0.115-0.284-0.269-0.284c-0.155 0-0.271 0.124-0.271 0.284s0.115 0.284 0.271 0.284zm-0.129-0.479h0.149c0.0898 0 0.135 0.036 0.135 0.11 0 0.0628-0.0394 0.108-0.1 0.108l0.111 0.173h-0.0684l-0.109-0.173h-0.054v0.173h-0.0647v-0.391zm0.0647 0.167h0.0755c0.0485 0 0.0808-0.0108 0.0808-0.0611 0-0.045-0.0394-0.0575-0.0808-0.0575h-0.0755z" stroke-width="0"/></svg>
